<?xml version="1.0" encoding="UTF-8" standalone="no"?><svg xmlns="http://www.w3.org/2000/svg" xmlns:xlink="http://www.w3.org/1999/xlink" contentScriptType="application/ecmascript" contentStyleType="text/css" height="697px" preserveAspectRatio="none" style="width:755px;height:697px;" version="1.1" viewBox="0 0 755 697" width="755px" zoomAndPan="magnify"><defs><filter height="300%" id="f1mrvaauc2mhcm" width="300%" x="-1" y="-1"><feGaussianBlur result="blurOut" stdDeviation="2.0"/><feColorMatrix in="blurOut" result="blurOut2" type="matrix" values="0 0 0 0 0 0 0 0 0 0 0 0 0 0 0 0 0 0 .4 0"/><feOffset dx="4.0" dy="4.0" in="blurOut2" result="blurOut3"/><feBlend in="SourceGraphic" in2="blurOut3" mode="normal"/></filter></defs><g><line style="stroke: #A80036; stroke-width: 1.0; stroke-dasharray: 5.0,5.0;" x1="31" x2="31" y1="86.2969" y2="610.2891"/><line style="stroke: #A80036; stroke-width: 1.0; stroke-dasharray: 5.0,5.0;" x1="184.5" x2="184.5" y1="86.2969" y2="610.2891"/><line style="stroke: #A80036; stroke-width: 1.0; stroke-dasharray: 5.0,5.0;" x1="320" x2="320" y1="86.2969" y2="610.2891"/><line style="stroke: #A80036; stroke-width: 1.0; stroke-dasharray: 5.0,5.0;" x1="480" x2="480" y1="86.2969" y2="610.2891"/><line style="stroke: #A80036; stroke-width: 1.0; stroke-dasharray: 5.0,5.0;" x1="602" x2="602" y1="86.2969" y2="610.2891"/><line style="stroke: #A80036; stroke-width: 1.0; stroke-dasharray: 5.0,5.0;" x1="714" x2="714" y1="86.2969" y2="610.2891"/><text fill="#000000" font-family="sans-serif" font-size="14" lengthAdjust="spacingAndGlyphs" textLength="40" x="8" y="82.9951">Editor</text><ellipse cx="31" cy="13" fill="#FEFECE" filter="url(#f1mrvaauc2mhcm)" rx="8" ry="8" style="stroke: #A80036; stroke-width: 2.0;"/><path d="M31,21 L31,48 M18,29 L44,29 M31,48 L18,63 M31,48 L44,63 " fill="none" filter="url(#f1mrvaauc2mhcm)" style="stroke: #A80036; stroke-width: 2.0;"/><text fill="#000000" font-family="sans-serif" font-size="14" lengthAdjust="spacingAndGlyphs" textLength="40" x="8" y="622.2842">Editor</text><ellipse cx="31" cy="635.5859" fill="#FEFECE" filter="url(#f1mrvaauc2mhcm)" rx="8" ry="8" style="stroke: #A80036; stroke-width: 2.0;"/><path d="M31,643.5859 L31,670.5859 M18,651.5859 L44,651.5859 M31,670.5859 L18,685.5859 M31,670.5859 L44,685.5859 " fill="none" filter="url(#f1mrvaauc2mhcm)" style="stroke: #A80036; stroke-width: 2.0;"/><rect fill="#FEFECE" filter="url(#f1mrvaauc2mhcm)" height="30.2969" style="stroke: #A80036; stroke-width: 1.5;" width="61" x="152.5" y="51"/><text fill="#000000" font-family="sans-serif" font-size="14" lengthAdjust="spacingAndGlyphs" textLength="47" x="159.5" y="70.9951">GitHub</text><rect fill="#FEFECE" filter="url(#f1mrvaauc2mhcm)" height="30.2969" style="stroke: #A80036; stroke-width: 1.5;" width="61" x="152.5" y="609.2891"/><text fill="#000000" font-family="sans-serif" font-size="14" lengthAdjust="spacingAndGlyphs" textLength="47" x="159.5" y="629.2842">GitHub</text><rect fill="#FEFECE" filter="url(#f1mrvaauc2mhcm)" height="30.2969" style="stroke: #A80036; stroke-width: 1.5;" width="62" x="287" y="51"/><text fill="#000000" font-family="sans-serif" font-size="14" lengthAdjust="spacingAndGlyphs" textLength="48" x="294" y="70.9951">Builder</text><rect fill="#FEFECE" filter="url(#f1mrvaauc2mhcm)" height="30.2969" style="stroke: #A80036; stroke-width: 1.5;" width="62" x="287" y="609.2891"/><text fill="#000000" font-family="sans-serif" font-size="14" lengthAdjust="spacingAndGlyphs" textLength="48" x="294" y="629.2842">Builder</text><rect fill="#FEFECE" filter="url(#f1mrvaauc2mhcm)" height="30.2969" style="stroke: #A80036; stroke-width: 1.5;" width="88" x="434" y="51"/><text fill="#000000" font-family="sans-serif" font-size="14" lengthAdjust="spacingAndGlyphs" textLength="74" x="441" y="70.9951">FileSystem</text><rect fill="#FEFECE" filter="url(#f1mrvaauc2mhcm)" height="30.2969" style="stroke: #A80036; stroke-width: 1.5;" width="88" x="434" y="609.2891"/><text fill="#000000" font-family="sans-serif" font-size="14" lengthAdjust="spacingAndGlyphs" textLength="74" x="441" y="629.2842">FileSystem</text><rect fill="#FEFECE" filter="url(#f1mrvaauc2mhcm)" height="30.2969" style="stroke: #A80036; stroke-width: 1.5;" width="58" x="571" y="51"/><text fill="#000000" font-family="sans-serif" font-size="14" lengthAdjust="spacingAndGlyphs" textLength="44" x="578" y="70.9951">Server</text><rect fill="#FEFECE" filter="url(#f1mrvaauc2mhcm)" height="30.2969" style="stroke: #A80036; stroke-width: 1.5;" width="58" x="571" y="609.2891"/><text fill="#000000" font-family="sans-serif" font-size="14" lengthAdjust="spacingAndGlyphs" textLength="44" x="578" y="629.2842">Server</text><text fill="#000000" font-family="sans-serif" font-size="14" lengthAdjust="spacingAndGlyphs" textLength="42" x="690" y="82.9951">Visitor</text><ellipse cx="714" cy="13" fill="#FEFECE" filter="url(#f1mrvaauc2mhcm)" rx="8" ry="8" style="stroke: #A80036; stroke-width: 2.0;"/><path d="M714,21 L714,48 M701,29 L727,29 M714,48 L701,63 M714,48 L727,63 " fill="none" filter="url(#f1mrvaauc2mhcm)" style="stroke: #A80036; stroke-width: 2.0;"/><text fill="#000000" font-family="sans-serif" font-size="14" lengthAdjust="spacingAndGlyphs" textLength="42" x="690" y="622.2842">Visitor</text><ellipse cx="714" cy="635.5859" fill="#FEFECE" filter="url(#f1mrvaauc2mhcm)" rx="8" ry="8" style="stroke: #A80036; stroke-width: 2.0;"/><path d="M714,643.5859 L714,670.5859 M701,651.5859 L727,651.5859 M714,670.5859 L701,685.5859 M714,670.5859 L727,685.5859 " fill="none" filter="url(#f1mrvaauc2mhcm)" style="stroke: #A80036; stroke-width: 2.0;"/><rect fill="#EEEEEE" filter="url(#f1mrvaauc2mhcm)" height="3" style="stroke: #EEEEEE; stroke-width: 1.0;" width="740" x="3" y="116.8633"/><line style="stroke: #000000; stroke-width: 1.0;" x1="3" x2="743" y1="116.8633" y2="116.8633"/><line style="stroke: #000000; stroke-width: 1.0;" x1="3" x2="743" y1="119.8633" y2="119.8633"/><rect fill="#EEEEEE" filter="url(#f1mrvaauc2mhcm)" height="23.1328" style="stroke: #000000; stroke-width: 2.0;" width="108" x="319" y="106.2969"/><text fill="#000000" font-family="sans-serif" font-size="13" font-weight="bold" lengthAdjust="spacingAndGlyphs" textLength="89" x="325" y="122.3638">Initialisation</text><polygon fill="#A80036" points="173,156.5625,183,160.5625,173,164.5625,177,160.5625" style="stroke: #A80036; stroke-width: 1.0;"/><line style="stroke: #A80036; stroke-width: 1.0;" x1="31" x2="179" y1="160.5625" y2="160.5625"/><text fill="#000000" font-family="sans-serif" font-size="13" lengthAdjust="spacingAndGlyphs" textLength="130" x="38" y="155.4966">Push MarkDown files</text><polygon fill="#A80036" points="308,185.6953,318,189.6953,308,193.6953,312,189.6953" style="stroke: #A80036; stroke-width: 1.0;"/><line style="stroke: #A80036; stroke-width: 1.0;" x1="185" x2="314" y1="189.6953" y2="189.6953"/><text fill="#000000" font-family="sans-serif" font-size="13" lengthAdjust="spacingAndGlyphs" textLength="111" x="192" y="184.6294">Notify of changes</text><polygon fill="#A80036" points="196,214.8281,186,218.8281,196,222.8281,192,218.8281" style="stroke: #A80036; stroke-width: 1.0;"/><line style="stroke: #A80036; stroke-width: 1.0;" x1="190" x2="319" y1="218.8281" y2="218.8281"/><text fill="#000000" font-family="sans-serif" font-size="13" lengthAdjust="spacingAndGlyphs" textLength="99" x="202" y="213.7622">Request all files</text><polygon fill="#A80036" points="308,243.9609,318,247.9609,308,251.9609,312,247.9609" style="stroke: #A80036; stroke-width: 1.0;"/><line style="stroke: #A80036; stroke-width: 1.0; stroke-dasharray: 2.0,2.0;" x1="185" x2="314" y1="247.9609" y2="247.9609"/><text fill="#000000" font-family="sans-serif" font-size="13" lengthAdjust="spacingAndGlyphs" textLength="62" x="192" y="242.895">Send files</text><line style="stroke: #A80036; stroke-width: 1.0;" x1="320" x2="362" y1="277.0938" y2="277.0938"/><line style="stroke: #A80036; stroke-width: 1.0;" x1="362" x2="362" y1="277.0938" y2="290.0938"/><line style="stroke: #A80036; stroke-width: 1.0;" x1="321" x2="362" y1="290.0938" y2="290.0938"/><polygon fill="#A80036" points="331,286.0938,321,290.0938,331,294.0938,327,290.0938" style="stroke: #A80036; stroke-width: 1.0;"/><text fill="#000000" font-family="sans-serif" font-size="13" lengthAdjust="spacingAndGlyphs" textLength="78" x="327" y="272.0278">Write to disk</text><line style="stroke: #A80036; stroke-width: 1.0;" x1="320" x2="362" y1="319.2266" y2="319.2266"/><line style="stroke: #A80036; stroke-width: 1.0;" x1="362" x2="362" y1="319.2266" y2="332.2266"/><line style="stroke: #A80036; stroke-width: 1.0;" x1="321" x2="362" y1="332.2266" y2="332.2266"/><polygon fill="#A80036" points="331,328.2266,321,332.2266,331,336.2266,327,332.2266" style="stroke: #A80036; stroke-width: 1.0;"/><text fill="#000000" font-family="sans-serif" font-size="13" lengthAdjust="spacingAndGlyphs" textLength="137" x="327" y="314.1606">Build individual pages</text><polygon fill="#A80036" points="468,357.3594,478,361.3594,468,365.3594,472,361.3594" style="stroke: #A80036; stroke-width: 1.0;"/><line style="stroke: #A80036; stroke-width: 1.0;" x1="320" x2="474" y1="361.3594" y2="361.3594"/><text fill="#000000" font-family="sans-serif" font-size="13" lengthAdjust="spacingAndGlyphs" textLength="114" x="327" y="356.2935">Write static pages</text><line style="stroke: #A80036; stroke-width: 1.0;" x1="320" x2="362" y1="390.4922" y2="390.4922"/><line style="stroke: #A80036; stroke-width: 1.0;" x1="362" x2="362" y1="390.4922" y2="403.4922"/><line style="stroke: #A80036; stroke-width: 1.0;" x1="321" x2="362" y1="403.4922" y2="403.4922"/><polygon fill="#A80036" points="331,399.4922,321,403.4922,331,407.4922,327,403.4922" style="stroke: #A80036; stroke-width: 1.0;"/><text fill="#000000" font-family="sans-serif" font-size="13" lengthAdjust="spacingAndGlyphs" textLength="96" x="327" y="385.4263">Build list pages</text><polygon fill="#A80036" points="468,428.625,478,432.625,468,436.625,472,432.625" style="stroke: #A80036; stroke-width: 1.0;"/><line style="stroke: #A80036; stroke-width: 1.0;" x1="320" x2="474" y1="432.625" y2="432.625"/><text fill="#000000" font-family="sans-serif" font-size="13" lengthAdjust="spacingAndGlyphs" textLength="136" x="327" y="427.5591">Write static list pages</text><rect fill="#EEEEEE" filter="url(#f1mrvaauc2mhcm)" height="3" style="stroke: #EEEEEE; stroke-width: 1.0;" width="740" x="3" y="461.1914"/><line style="stroke: #000000; stroke-width: 1.0;" x1="3" x2="743" y1="461.1914" y2="461.1914"/><line style="stroke: #000000; stroke-width: 1.0;" x1="3" x2="743" y1="464.1914" y2="464.1914"/><rect fill="#EEEEEE" filter="url(#f1mrvaauc2mhcm)" height="23.1328" style="stroke: #000000; stroke-width: 2.0;" width="125" x="310.5" y="450.625"/><text fill="#000000" font-family="sans-serif" font-size="13" font-weight="bold" lengthAdjust="spacingAndGlyphs" textLength="106" x="316.5" y="466.6919">Serving pages</text><polygon fill="#A80036" points="613,500.8906,603,504.8906,613,508.8906,609,504.8906" style="stroke: #A80036; stroke-width: 1.0;"/><line style="stroke: #A80036; stroke-width: 1.0;" x1="607" x2="713" y1="504.8906" y2="504.8906"/><text fill="#000000" font-family="sans-serif" font-size="13" lengthAdjust="spacingAndGlyphs" textLength="88" x="619" y="499.8247">Request page</text><polygon fill="#A80036" points="491,530.0234,481,534.0234,491,538.0234,487,534.0234" style="stroke: #A80036; stroke-width: 1.0;"/><line style="stroke: #A80036; stroke-width: 1.0;" x1="485" x2="601" y1="534.0234" y2="534.0234"/><text fill="#000000" font-family="sans-serif" font-size="13" lengthAdjust="spacingAndGlyphs" textLength="98" x="497" y="528.9575">Get static page</text><polygon fill="#A80036" points="590,559.1563,600,563.1563,590,567.1563,594,563.1563" style="stroke: #A80036; stroke-width: 1.0;"/><line style="stroke: #A80036; stroke-width: 1.0; stroke-dasharray: 2.0,2.0;" x1="480" x2="596" y1="563.1563" y2="563.1563"/><text fill="#000000" font-family="sans-serif" font-size="13" lengthAdjust="spacingAndGlyphs" textLength="98" x="487" y="558.0903">Get static page</text><polygon fill="#A80036" points="702,588.2891,712,592.2891,702,596.2891,706,592.2891" style="stroke: #A80036; stroke-width: 1.0;"/><line style="stroke: #A80036; stroke-width: 1.0; stroke-dasharray: 2.0,2.0;" x1="602" x2="708" y1="592.2891" y2="592.2891"/><text fill="#000000" font-family="sans-serif" font-size="13" lengthAdjust="spacingAndGlyphs" textLength="78" x="609" y="587.2231">Return page</text><!--MD5=[84b89e2d63ee6dca073db9a152abad43]
@startuml
actor Editor
participant GitHub
participant Builder
participant FileSystem
participant Server
actor Visitor

== Initialisation ==
Editor -> GitHub: Push MarkDown files
GitHub -> Builder: Notify of changes
Builder -> GitHub: Request all files
GitHub - -> Builder: Send files
Builder -> Builder: Write to disk
Builder -> Builder: Build individual pages
Builder -> FileSystem: Write static pages
Builder -> Builder: Build list pages
Builder -> FileSystem: Write static list pages

== Serving pages ==
Server <- Visitor: Request page
Server -> FileSystem: Get static page
FileSystem - -> Server: Get static page
Server - -> Visitor: Return page

@enduml

PlantUML version 1.2020.00(Sat Jan 11 12:30:53 UTC 2020)
(GPL source distribution)
Java Runtime: OpenJDK Runtime Environment
JVM: OpenJDK 64-Bit Server VM
Java Version: 1.8.0_212-8u212-b01-1~deb9u1-b01
Operating System: Linux
Default Encoding: UTF-8
Language: en
Country: null
--></g></svg>